<svg xmlns="http://www.w3.org/2000/svg" xmlns:xlink="http://www.w3.org/1999/xlink" viewBox="0,0,256,256" width="64px" height="64px" fill-rule="nonzero"><defs><linearGradient x1="40" y1="6" x2="40" y2="59" gradientUnits="userSpaceOnUse" id="color-1"><stop offset="0" stop-color="#27e682"></stop><stop offset="1" stop-color="#103e7f"></stop></linearGradient><linearGradient x1="32" y1="6" x2="32" y2="59" gradientUnits="userSpaceOnUse" id="color-2"><stop offset="0" stop-color="#0f1c34"></stop><stop offset="1" stop-color="#2bba9e"></stop></linearGradient></defs><g fill="none" fill-rule="nonzero" stroke="none" stroke-width="1" stroke-linecap="butt" stroke-linejoin="miter" stroke-miterlimit="10" stroke-dasharray="" stroke-dashoffset="0" font-family="none" font-weight="none" font-size="none" text-anchor="none" style="mix-blend-mode: normal"><g transform="scale(4,4)"><path d="M56.461,19.801c0.358,-1.072 0.539,-2.181 0.539,-3.301c0,-5.79 -4.71,-10.5 -10.5,-10.5c-2.689,0 -5.21,1.001 -7.161,2.831c-2.079,-0.477 -5.206,-0.767 -7.339,-0.831v22c1,0 2.638,0 4.5,0c3.038,0 5.5,2.239 5.5,5c0,2.761 -2.462,5 -5.5,5c-1.862,0 -3.505,-0.843 -4.5,-2.131v0.131l-4,2v3l4,1v-5h1c0,0 0,1 3,1v3.845c0.926,0.088 1.637,0.469 1.836,1.095c0.334,1.053 -0.888,2.381 -2.73,2.966c-1.192,0.379 -2.345,0.349 -3.106,-0.002v11.096c15.528,-0.466 29,-11.734 29,-25.5c0,-4.88 -1.567,-9.604 -4.539,-13.699zM40,43l-3,1v-3l3,-1zM36,28l6,-5c0,0 -2,6 4,3c0,0 6,-4 7,-6l-6,11c0,0 1,-3 0,-4c-1,-1 -5,3 -5,3c0,0 0,-4 -6,-2zM44,41l-3,2v-5l3,-1zM48,39l-3,2v-4l3,-1zM49,38v-3l5,-4c-1,4 -5,7 -5,7zM25,27c0,1.657 -1.343,3 -3,3c-1.657,0 -3,-1.343 -3,-3c0,-1.657 1.343,-3 3,-3c1.657,0 3,1.343 3,3z" fill="url(#color-1)"></path><path d="M42,30c0,0 4,-4 5,-3c1,1 0,4 0,4l6,-11c-1,2 -7,6 -7,6c-6,3 -4,-3 -4,-3l-6,5c6,-2 6,2 6,2z" fill="none"></path><path d="M32,59c-15.99,0 -29,-11.439 -29,-25.5c0,-4.88 1.567,-9.604 4.539,-13.699c-0.358,-1.072 -0.539,-2.181 -0.539,-3.301c0,-5.79 4.71,-10.5 10.5,-10.5c2.689,0 5.21,1.001 7.161,2.831c4.807,-1.104 9.871,-1.104 14.678,0c1.951,-1.83 4.472,-2.831 7.161,-2.831c5.79,0 10.5,4.71 10.5,10.5c0,1.12 -0.181,2.229 -0.539,3.301c2.972,4.095 4.539,8.819 4.539,13.699c0,14.061 -13.01,25.5 -29,25.5zM17.5,8c-4.687,0 -8.5,3.813 -8.5,8.5c0,1.055 0.199,2.098 0.593,3.101c0.128,0.324 0.077,0.692 -0.134,0.97c-2.917,3.842 -4.459,8.314 -4.459,12.929c0,12.958 12.112,23.5 27,23.5c14.888,0 27,-10.542 27,-23.5c0,-4.615 -1.542,-9.087 -4.459,-12.93c-0.211,-0.277 -0.262,-0.646 -0.134,-0.97c0.394,-1.002 0.593,-2.045 0.593,-3.1c0,-4.687 -3.813,-8.5 -8.5,-8.5c-2.333,0 -4.511,0.932 -6.131,2.624c-0.248,0.259 -0.617,0.363 -0.963,0.279c-4.838,-1.199 -9.975,-1.199 -14.812,0c-0.346,0.085 -0.714,-0.021 -0.963,-0.279c-1.62,-1.692 -3.798,-2.624 -6.131,-2.624zM32,38.761c1.076,1.348 2.915,2.239 5,2.239c3.309,0 6,-2.243 6,-5c0,-3.859 -3.141,-7 -7,-7h-8c-3.859,0 -7,3.141 -7,7c0,0.474 0.085,0.931 0.233,1.366c-0.076,0.093 -0.141,0.197 -0.182,0.318c-1.823,5.47 3.518,9.098 6.632,10.265c1.695,0.565 3.2,0.799 4.529,0.799c6.324,0 8.679,-5.288 8.706,-5.354c0.153,-0.357 0.085,-0.772 -0.175,-1.062c-0.262,-0.29 -0.668,-0.399 -1.038,-0.287c-6.201,1.908 -9.066,1.179 -10.382,0.23c-0.603,-0.435 -0.926,-0.953 -1.105,-1.388c1.571,-0.272 2.922,-1.049 3.782,-2.126zM37.548,44.688c-1.557,1.488 -4.428,2.962 -9.195,1.376c-0.266,-0.1 -5.985,-2.331 -5.635,-6.569c0.9,0.765 2.092,1.287 3.424,1.447c0.203,0.81 0.703,1.987 1.961,2.916c2.026,1.496 5.197,1.773 9.445,0.83zM27,39c-2.206,0 -4,-1.346 -4,-3c0,-2.757 2.243,-5 5,-5h8c2.757,0 5,2.243 5,5c0,1.654 -1.794,3 -4,3c-1.904,0 -3.494,-1.004 -3.896,-2.342c1.259,-0.596 2.896,-1.842 2.896,-2.658c0,-1.105 -1.791,-2 -4,-2c-2.209,0 -4,0.895 -4,2c0,0.816 1.637,2.062 2.896,2.658c-0.402,1.338 -1.992,2.342 -3.896,2.342z" fill="url(#color-2)"></path></g></g></svg>